<svg xmlns="http://www.w3.org/2000/svg" viewBox="0 0 100 100"><defs><style>.cls-1{fill:#fff;}</style></defs><title>2</title><g id="dice-background"><rect class="cls-1" x="0.5" y="0.5" width="99" height="99" rx="12.16"/><path d="M87.34,1A11.67,11.67,0,0,1,99,12.66V87.34A11.67,11.67,0,0,1,87.34,99H12.66A11.67,11.67,0,0,1,1,87.34V12.66A11.67,11.67,0,0,1,12.66,1H87.34m0-1H12.66A12.66,12.66,0,0,0,0,12.66V87.34A12.66,12.66,0,0,0,12.66,100H87.34A12.66,12.66,0,0,0,100,87.34V12.66A12.66,12.66,0,0,0,87.34,0Z"/></g><g id="two"><circle cx="27" cy="23" r="11"/><circle cx="73" cy="77" r="11"/></g></svg>